<?xml version="1.0" encoding="utf-8" standalone="no"?>
<!DOCTYPE svg PUBLIC "-//W3C//DTD SVG 1.1//EN"
  "http://www.w3.org/Graphics/SVG/1.1/DTD/svg11.dtd">
<svg height="2160pt" version="1.1" viewBox="0 0 2880 2160" width="2880pt" xmlns="http://www.w3.org/2000/svg" xmlns:xlink="http://www.w3.org/1999/xlink">
 <metadata>
  <rdf:RDF xmlns:cc="http://creativecommons.org/ns#" xmlns:dc="http://purl.org/dc/elements/1.1/" xmlns:rdf="http://www.w3.org/1999/02/22-rdf-syntax-ns#">
   <cc:Work>
    <dc:type rdf:resource="http://purl.org/dc/dcmitype/StillImage"/>
    <dc:date>2022-03-09T10:27:32.042106</dc:date>
    <dc:format>image/svg+xml</dc:format>
    <dc:creator>
     <cc:Agent>
      <dc:title>Matplotlib v3.4.2, https://matplotlib.org/</dc:title>
     </cc:Agent>
    </dc:creator>
   </cc:Work>
  </rdf:RDF>
 </metadata>
 <defs>
  <style type="text/css">*{stroke-linecap:butt;stroke-linejoin:round;}</style>
 </defs>
 <g id="figure_1">
  <g id="patch_1">
   <path d="M 0 2160 
L 2880 2160 
L 2880 0 
L 0 0 
z
" style="fill:#ffffff;"/>
  </g>
  <g id="axes_1">
   <g id="patch_2">
    <path d="M 360 1922.4 
L 2592 1922.4 
L 2592 259.2 
L 360 259.2 
z
" style="fill:#ffffff;"/>
   </g>
   <g id="matplotlib.axis_1">
    <g id="xtick_1">
     <g id="text_1">
      <!-- BAYN.DE -->
      <g transform="translate(371.972686 1958.425849)rotate(-45)scale(0.08 -0.08)">
       <defs>
        <path d="M 1259 2228 
L 1259 519 
L 2272 519 
Q 2781 519 3026 730 
Q 3272 941 3272 1375 
Q 3272 1813 3026 2020 
Q 2781 2228 2272 2228 
L 1259 2228 
z
M 1259 4147 
L 1259 2741 
L 2194 2741 
Q 2656 2741 2882 2914 
Q 3109 3088 3109 3444 
Q 3109 3797 2882 3972 
Q 2656 4147 2194 4147 
L 1259 4147 
z
M 628 4666 
L 2241 4666 
Q 2963 4666 3353 4366 
Q 3744 4066 3744 3513 
Q 3744 3084 3544 2831 
Q 3344 2578 2956 2516 
Q 3422 2416 3680 2098 
Q 3938 1781 3938 1306 
Q 3938 681 3513 340 
Q 3088 0 2303 0 
L 628 0 
L 628 4666 
z
" id="DejaVuSans-42" transform="scale(0.015625)"/>
        <path d="M 2188 4044 
L 1331 1722 
L 3047 1722 
L 2188 4044 
z
M 1831 4666 
L 2547 4666 
L 4325 0 
L 3669 0 
L 3244 1197 
L 1141 1197 
L 716 0 
L 50 0 
L 1831 4666 
z
" id="DejaVuSans-41" transform="scale(0.015625)"/>
        <path d="M -13 4666 
L 666 4666 
L 1959 2747 
L 3244 4666 
L 3922 4666 
L 2272 2222 
L 2272 0 
L 1638 0 
L 1638 2222 
L -13 4666 
z
" id="DejaVuSans-59" transform="scale(0.015625)"/>
        <path d="M 628 4666 
L 1478 4666 
L 3547 763 
L 3547 4666 
L 4159 4666 
L 4159 0 
L 3309 0 
L 1241 3903 
L 1241 0 
L 628 0 
L 628 4666 
z
" id="DejaVuSans-4e" transform="scale(0.015625)"/>
        <path d="M 684 794 
L 1344 794 
L 1344 0 
L 684 0 
L 684 794 
z
" id="DejaVuSans-2e" transform="scale(0.015625)"/>
        <path d="M 1259 4147 
L 1259 519 
L 2022 519 
Q 2988 519 3436 956 
Q 3884 1394 3884 2338 
Q 3884 3275 3436 3711 
Q 2988 4147 2022 4147 
L 1259 4147 
z
M 628 4666 
L 1925 4666 
Q 3281 4666 3915 4102 
Q 4550 3538 4550 2338 
Q 4550 1131 3912 565 
Q 3275 0 1925 0 
L 628 0 
L 628 4666 
z
" id="DejaVuSans-44" transform="scale(0.015625)"/>
        <path d="M 628 4666 
L 3578 4666 
L 3578 4134 
L 1259 4134 
L 1259 2753 
L 3481 2753 
L 3481 2222 
L 1259 2222 
L 1259 531 
L 3634 531 
L 3634 0 
L 628 0 
L 628 4666 
z
" id="DejaVuSans-45" transform="scale(0.015625)"/>
       </defs>
       <use xlink:href="#DejaVuSans-42"/>
       <use x="68.603516" xlink:href="#DejaVuSans-41"/>
       <use x="129.261719" xlink:href="#DejaVuSans-59"/>
       <use x="190.345703" xlink:href="#DejaVuSans-4e"/>
       <use x="265.150391" xlink:href="#DejaVuSans-2e"/>
       <use x="296.9375" xlink:href="#DejaVuSans-44"/>
       <use x="373.939453" xlink:href="#DejaVuSans-45"/>
      </g>
     </g>
    </g>
    <g id="xtick_2">
     <g id="text_2">
      <!-- SAN.PA -->
      <g transform="translate(419.629117 1954.215029)rotate(-45)scale(0.08 -0.08)">
       <defs>
        <path d="M 3425 4513 
L 3425 3897 
Q 3066 4069 2747 4153 
Q 2428 4238 2131 4238 
Q 1616 4238 1336 4038 
Q 1056 3838 1056 3469 
Q 1056 3159 1242 3001 
Q 1428 2844 1947 2747 
L 2328 2669 
Q 3034 2534 3370 2195 
Q 3706 1856 3706 1288 
Q 3706 609 3251 259 
Q 2797 -91 1919 -91 
Q 1588 -91 1214 -16 
Q 841 59 441 206 
L 441 856 
Q 825 641 1194 531 
Q 1563 422 1919 422 
Q 2459 422 2753 634 
Q 3047 847 3047 1241 
Q 3047 1584 2836 1778 
Q 2625 1972 2144 2069 
L 1759 2144 
Q 1053 2284 737 2584 
Q 422 2884 422 3419 
Q 422 4038 858 4394 
Q 1294 4750 2059 4750 
Q 2388 4750 2728 4690 
Q 3069 4631 3425 4513 
z
" id="DejaVuSans-53" transform="scale(0.015625)"/>
        <path d="M 1259 4147 
L 1259 2394 
L 2053 2394 
Q 2494 2394 2734 2622 
Q 2975 2850 2975 3272 
Q 2975 3691 2734 3919 
Q 2494 4147 2053 4147 
L 1259 4147 
z
M 628 4666 
L 2053 4666 
Q 2838 4666 3239 4311 
Q 3641 3956 3641 3272 
Q 3641 2581 3239 2228 
Q 2838 1875 2053 1875 
L 1259 1875 
L 1259 0 
L 628 0 
L 628 4666 
z
" id="DejaVuSans-50" transform="scale(0.015625)"/>
       </defs>
       <use xlink:href="#DejaVuSans-53"/>
       <use x="65.351562" xlink:href="#DejaVuSans-41"/>
       <use x="133.759766" xlink:href="#DejaVuSans-4e"/>
       <use x="208.564453" xlink:href="#DejaVuSans-2e"/>
       <use x="240.351562" xlink:href="#DejaVuSans-50"/>
       <use x="294.279297" xlink:href="#DejaVuSans-41"/>
      </g>
     </g>
    </g>
    <g id="xtick_3">
     <g id="text_3">
      <!-- PHIA.AS -->
      <g transform="translate(464.256921 1956.061461)rotate(-45)scale(0.08 -0.08)">
       <defs>
        <path d="M 628 4666 
L 1259 4666 
L 1259 2753 
L 3553 2753 
L 3553 4666 
L 4184 4666 
L 4184 0 
L 3553 0 
L 3553 2222 
L 1259 2222 
L 1259 0 
L 628 0 
L 628 4666 
z
" id="DejaVuSans-48" transform="scale(0.015625)"/>
        <path d="M 628 4666 
L 1259 4666 
L 1259 0 
L 628 0 
L 628 4666 
z
" id="DejaVuSans-49" transform="scale(0.015625)"/>
       </defs>
       <use xlink:href="#DejaVuSans-50"/>
       <use x="60.302734" xlink:href="#DejaVuSans-48"/>
       <use x="135.498047" xlink:href="#DejaVuSans-49"/>
       <use x="164.990234" xlink:href="#DejaVuSans-41"/>
       <use x="231.648438" xlink:href="#DejaVuSans-2e"/>
       <use x="263.435547" xlink:href="#DejaVuSans-41"/>
       <use x="331.84375" xlink:href="#DejaVuSans-53"/>
      </g>
     </g>
    </g>
    <g id="xtick_4">
     <g id="text_4">
      <!-- MC.PA -->
      <g transform="translate(512.215198 1951.246948)rotate(-45)scale(0.08 -0.08)">
       <defs>
        <path d="M 628 4666 
L 1569 4666 
L 2759 1491 
L 3956 4666 
L 4897 4666 
L 4897 0 
L 4281 0 
L 4281 4097 
L 3078 897 
L 2444 897 
L 1241 4097 
L 1241 0 
L 628 0 
L 628 4666 
z
" id="DejaVuSans-4d" transform="scale(0.015625)"/>
        <path d="M 4122 4306 
L 4122 3641 
Q 3803 3938 3442 4084 
Q 3081 4231 2675 4231 
Q 1875 4231 1450 3742 
Q 1025 3253 1025 2328 
Q 1025 1406 1450 917 
Q 1875 428 2675 428 
Q 3081 428 3442 575 
Q 3803 722 4122 1019 
L 4122 359 
Q 3791 134 3420 21 
Q 3050 -91 2638 -91 
Q 1578 -91 968 557 
Q 359 1206 359 2328 
Q 359 3453 968 4101 
Q 1578 4750 2638 4750 
Q 3056 4750 3426 4639 
Q 3797 4528 4122 4306 
z
" id="DejaVuSans-43" transform="scale(0.015625)"/>
       </defs>
       <use xlink:href="#DejaVuSans-4d"/>
       <use x="86.279297" xlink:href="#DejaVuSans-43"/>
       <use x="156.103516" xlink:href="#DejaVuSans-2e"/>
       <use x="187.890625" xlink:href="#DejaVuSans-50"/>
       <use x="241.818359" xlink:href="#DejaVuSans-41"/>
      </g>
     </g>
    </g>
    <g id="xtick_5">
     <g id="text_5">
      <!-- CRG.IR -->
      <g transform="translate(556.709978 1953.359429)rotate(-45)scale(0.08 -0.08)">
       <defs>
        <path d="M 2841 2188 
Q 3044 2119 3236 1894 
Q 3428 1669 3622 1275 
L 4263 0 
L 3584 0 
L 2988 1197 
Q 2756 1666 2539 1819 
Q 2322 1972 1947 1972 
L 1259 1972 
L 1259 0 
L 628 0 
L 628 4666 
L 2053 4666 
Q 2853 4666 3247 4331 
Q 3641 3997 3641 3322 
Q 3641 2881 3436 2590 
Q 3231 2300 2841 2188 
z
M 1259 4147 
L 1259 2491 
L 2053 2491 
Q 2509 2491 2742 2702 
Q 2975 2913 2975 3322 
Q 2975 3731 2742 3939 
Q 2509 4147 2053 4147 
L 1259 4147 
z
" id="DejaVuSans-52" transform="scale(0.015625)"/>
        <path d="M 3809 666 
L 3809 1919 
L 2778 1919 
L 2778 2438 
L 4434 2438 
L 4434 434 
Q 4069 175 3628 42 
Q 3188 -91 2688 -91 
Q 1594 -91 976 548 
Q 359 1188 359 2328 
Q 359 3472 976 4111 
Q 1594 4750 2688 4750 
Q 3144 4750 3555 4637 
Q 3966 4525 4313 4306 
L 4313 3634 
Q 3963 3931 3569 4081 
Q 3175 4231 2741 4231 
Q 1884 4231 1454 3753 
Q 1025 3275 1025 2328 
Q 1025 1384 1454 906 
Q 1884 428 2741 428 
Q 3075 428 3337 486 
Q 3600 544 3809 666 
z
" id="DejaVuSans-47" transform="scale(0.015625)"/>
       </defs>
       <use xlink:href="#DejaVuSans-43"/>
       <use x="69.824219" xlink:href="#DejaVuSans-52"/>
       <use x="139.306641" xlink:href="#DejaVuSans-47"/>
       <use x="216.796875" xlink:href="#DejaVuSans-2e"/>
       <use x="248.583984" xlink:href="#DejaVuSans-49"/>
       <use x="278.076172" xlink:href="#DejaVuSans-52"/>
      </g>
     </g>
    </g>
    <g id="xtick_6">
     <g id="text_6">
      <!-- BN.PA -->
      <g transform="translate(603.676096 1950.529235)rotate(-45)scale(0.08 -0.08)">
       <use xlink:href="#DejaVuSans-42"/>
       <use x="68.603516" xlink:href="#DejaVuSans-4e"/>
       <use x="143.408203" xlink:href="#DejaVuSans-2e"/>
       <use x="175.195312" xlink:href="#DejaVuSans-50"/>
       <use x="229.123047" xlink:href="#DejaVuSans-41"/>
      </g>
     </g>
    </g>
    <g id="xtick_7">
     <g id="text_7">
      <!-- AI.PA -->
      <g transform="translate(650.514493 1947.954482)rotate(-45)scale(0.08 -0.08)">
       <use xlink:href="#DejaVuSans-41"/>
       <use x="68.408203" xlink:href="#DejaVuSans-49"/>
       <use x="97.900391" xlink:href="#DejaVuSans-2e"/>
       <use x="129.6875" xlink:href="#DejaVuSans-50"/>
       <use x="183.615234" xlink:href="#DejaVuSans-41"/>
      </g>
     </g>
    </g>
    <g id="xtick_8">
     <g id="text_8">
      <!-- LIN.DE -->
      <g transform="translate(693.803213 1952.479081)rotate(-45)scale(0.08 -0.08)">
       <defs>
        <path d="M 628 4666 
L 1259 4666 
L 1259 531 
L 3531 531 
L 3531 0 
L 628 0 
L 628 4666 
z
" id="DejaVuSans-4c" transform="scale(0.015625)"/>
       </defs>
       <use xlink:href="#DejaVuSans-4c"/>
       <use x="55.712891" xlink:href="#DejaVuSans-49"/>
       <use x="85.205078" xlink:href="#DejaVuSans-4e"/>
       <use x="160.009766" xlink:href="#DejaVuSans-2e"/>
       <use x="191.796875" xlink:href="#DejaVuSans-44"/>
       <use x="268.798828" xlink:href="#DejaVuSans-45"/>
      </g>
     </g>
    </g>
    <g id="xtick_9">
     <g id="text_9">
      <!-- MUV2.DE -->
      <g transform="translate(735.635736 1959.916077)rotate(-45)scale(0.08 -0.08)">
       <defs>
        <path d="M 556 4666 
L 1191 4666 
L 1191 1831 
Q 1191 1081 1462 751 
Q 1734 422 2344 422 
Q 2950 422 3222 751 
Q 3494 1081 3494 1831 
L 3494 4666 
L 4128 4666 
L 4128 1753 
Q 4128 841 3676 375 
Q 3225 -91 2344 -91 
Q 1459 -91 1007 375 
Q 556 841 556 1753 
L 556 4666 
z
" id="DejaVuSans-55" transform="scale(0.015625)"/>
        <path d="M 1831 0 
L 50 4666 
L 709 4666 
L 2188 738 
L 3669 4666 
L 4325 4666 
L 2547 0 
L 1831 0 
z
" id="DejaVuSans-56" transform="scale(0.015625)"/>
        <path d="M 1228 531 
L 3431 531 
L 3431 0 
L 469 0 
L 469 531 
Q 828 903 1448 1529 
Q 2069 2156 2228 2338 
Q 2531 2678 2651 2914 
Q 2772 3150 2772 3378 
Q 2772 3750 2511 3984 
Q 2250 4219 1831 4219 
Q 1534 4219 1204 4116 
Q 875 4013 500 3803 
L 500 4441 
Q 881 4594 1212 4672 
Q 1544 4750 1819 4750 
Q 2544 4750 2975 4387 
Q 3406 4025 3406 3419 
Q 3406 3131 3298 2873 
Q 3191 2616 2906 2266 
Q 2828 2175 2409 1742 
Q 1991 1309 1228 531 
z
" id="DejaVuSans-32" transform="scale(0.015625)"/>
       </defs>
       <use xlink:href="#DejaVuSans-4d"/>
       <use x="86.279297" xlink:href="#DejaVuSans-55"/>
       <use x="159.472656" xlink:href="#DejaVuSans-56"/>
       <use x="227.880859" xlink:href="#DejaVuSans-32"/>
       <use x="291.503906" xlink:href="#DejaVuSans-2e"/>
       <use x="323.291016" xlink:href="#DejaVuSans-44"/>
       <use x="400.292969" xlink:href="#DejaVuSans-45"/>
      </g>
     </g>
    </g>
    <g id="xtick_10">
     <g id="text_10">
      <!-- ALV.DE -->
      <g transform="translate(784.661302 1952.966985)rotate(-45)scale(0.08 -0.08)">
       <use xlink:href="#DejaVuSans-41"/>
       <use x="68.408203" xlink:href="#DejaVuSans-4c"/>
       <use x="113.121094" xlink:href="#DejaVuSans-56"/>
       <use x="168.654297" xlink:href="#DejaVuSans-2e"/>
       <use x="200.441406" xlink:href="#DejaVuSans-44"/>
       <use x="277.443359" xlink:href="#DejaVuSans-45"/>
      </g>
     </g>
    </g>
    <g id="xtick_11">
     <g id="text_11">
      <!-- CS.PA -->
      <g transform="translate(831.717134 1949.957362)rotate(-45)scale(0.08 -0.08)">
       <use xlink:href="#DejaVuSans-43"/>
       <use x="69.824219" xlink:href="#DejaVuSans-53"/>
       <use x="133.300781" xlink:href="#DejaVuSans-2e"/>
       <use x="165.087891" xlink:href="#DejaVuSans-50"/>
       <use x="219.015625" xlink:href="#DejaVuSans-41"/>
      </g>
     </g>
    </g>
    <g id="xtick_12">
     <g id="text_12">
      <!-- SIE.DE -->
      <g transform="translate(876.116454 1952.260762)rotate(-45)scale(0.08 -0.08)">
       <use xlink:href="#DejaVuSans-53"/>
       <use x="63.476562" xlink:href="#DejaVuSans-49"/>
       <use x="92.96875" xlink:href="#DejaVuSans-45"/>
       <use x="156.152344" xlink:href="#DejaVuSans-2e"/>
       <use x="187.939453" xlink:href="#DejaVuSans-44"/>
       <use x="264.941406" xlink:href="#DejaVuSans-45"/>
      </g>
     </g>
    </g>
    <g id="xtick_13">
     <g id="text_13">
      <!-- IFX.DE -->
      <g transform="translate(921.686036 1952.223639)rotate(-45)scale(0.08 -0.08)">
       <defs>
        <path d="M 628 4666 
L 3309 4666 
L 3309 4134 
L 1259 4134 
L 1259 2759 
L 3109 2759 
L 3109 2228 
L 1259 2228 
L 1259 0 
L 628 0 
L 628 4666 
z
" id="DejaVuSans-46" transform="scale(0.015625)"/>
        <path d="M 403 4666 
L 1081 4666 
L 2241 2931 
L 3406 4666 
L 4084 4666 
L 2584 2425 
L 4184 0 
L 3506 0 
L 2194 1984 
L 872 0 
L 191 0 
L 1856 2491 
L 403 4666 
z
" id="DejaVuSans-58" transform="scale(0.015625)"/>
       </defs>
       <use xlink:href="#DejaVuSans-49"/>
       <use x="29.492188" xlink:href="#DejaVuSans-46"/>
       <use x="87.011719" xlink:href="#DejaVuSans-58"/>
       <use x="155.517578" xlink:href="#DejaVuSans-2e"/>
       <use x="187.304688" xlink:href="#DejaVuSans-44"/>
       <use x="264.306641" xlink:href="#DejaVuSans-45"/>
      </g>
     </g>
    </g>
    <g id="xtick_14">
     <g id="text_14">
      <!-- SU.PA -->
      <g transform="translate(968.275178 1950.147397)rotate(-45)scale(0.08 -0.08)">
       <use xlink:href="#DejaVuSans-53"/>
       <use x="63.476562" xlink:href="#DejaVuSans-55"/>
       <use x="136.669922" xlink:href="#DejaVuSans-2e"/>
       <use x="168.457031" xlink:href="#DejaVuSans-50"/>
       <use x="222.384766" xlink:href="#DejaVuSans-41"/>
      </g>
     </g>
    </g>
    <g id="xtick_15">
     <g id="text_15">
      <!-- EL.PA -->
      <g transform="translate(1014.328686 1949.142421)rotate(-45)scale(0.08 -0.08)">
       <use xlink:href="#DejaVuSans-45"/>
       <use x="63.183594" xlink:href="#DejaVuSans-4c"/>
       <use x="118.896484" xlink:href="#DejaVuSans-2e"/>
       <use x="150.683594" xlink:href="#DejaVuSans-50"/>
       <use x="204.611328" xlink:href="#DejaVuSans-41"/>
      </g>
     </g>
    </g>
    <g id="xtick_16">
     <g id="text_16">
      <!-- OR.PA -->
      <g transform="translate(1059.153596 1950.594642)rotate(-45)scale(0.08 -0.08)">
       <defs>
        <path d="M 2522 4238 
Q 1834 4238 1429 3725 
Q 1025 3213 1025 2328 
Q 1025 1447 1429 934 
Q 1834 422 2522 422 
Q 3209 422 3611 934 
Q 4013 1447 4013 2328 
Q 4013 3213 3611 3725 
Q 3209 4238 2522 4238 
z
M 2522 4750 
Q 3503 4750 4090 4092 
Q 4678 3434 4678 2328 
Q 4678 1225 4090 567 
Q 3503 -91 2522 -91 
Q 1538 -91 948 565 
Q 359 1222 359 2328 
Q 359 3434 948 4092 
Q 1538 4750 2522 4750 
z
" id="DejaVuSans-4f" transform="scale(0.015625)"/>
       </defs>
       <use xlink:href="#DejaVuSans-4f"/>
       <use x="78.710938" xlink:href="#DejaVuSans-52"/>
       <use x="144.568359" xlink:href="#DejaVuSans-2e"/>
       <use x="176.355469" xlink:href="#DejaVuSans-50"/>
       <use x="230.283203" xlink:href="#DejaVuSans-41"/>
      </g>
     </g>
    </g>
    <g id="xtick_17">
     <g id="text_17">
      <!-- DPW.DE -->
      <g transform="translate(1101.934084 1956.135707)rotate(-45)scale(0.08 -0.08)">
       <defs>
        <path d="M 213 4666 
L 850 4666 
L 1831 722 
L 2809 4666 
L 3519 4666 
L 4500 722 
L 5478 4666 
L 6119 4666 
L 4947 0 
L 4153 0 
L 3169 4050 
L 2175 0 
L 1381 0 
L 213 4666 
z
" id="DejaVuSans-57" transform="scale(0.015625)"/>
       </defs>
       <use xlink:href="#DejaVuSans-44"/>
       <use x="77.001953" xlink:href="#DejaVuSans-50"/>
       <use x="137.304688" xlink:href="#DejaVuSans-57"/>
       <use x="224.681641" xlink:href="#DejaVuSans-2e"/>
       <use x="256.46875" xlink:href="#DejaVuSans-44"/>
       <use x="333.470703" xlink:href="#DejaVuSans-45"/>
      </g>
     </g>
    </g>
    <g id="xtick_18">
     <g id="text_18">
      <!-- BAS.DE -->
      <g transform="translate(1148.168788 1954.76834)rotate(-45)scale(0.08 -0.08)">
       <use xlink:href="#DejaVuSans-42"/>
       <use x="68.603516" xlink:href="#DejaVuSans-41"/>
       <use x="137.011719" xlink:href="#DejaVuSans-53"/>
       <use x="200.488281" xlink:href="#DejaVuSans-2e"/>
       <use x="232.275391" xlink:href="#DejaVuSans-44"/>
       <use x="309.277344" xlink:href="#DejaVuSans-45"/>
      </g>
     </g>
    </g>
    <g id="xtick_19">
     <g id="text_19">
      <!-- ENI.MI -->
      <g transform="translate(1195.343503 1951.520952)rotate(-45)scale(0.08 -0.08)">
       <use xlink:href="#DejaVuSans-45"/>
       <use x="63.183594" xlink:href="#DejaVuSans-4e"/>
       <use x="137.988281" xlink:href="#DejaVuSans-49"/>
       <use x="167.480469" xlink:href="#DejaVuSans-2e"/>
       <use x="199.267578" xlink:href="#DejaVuSans-4d"/>
       <use x="285.546875" xlink:href="#DejaVuSans-49"/>
      </g>
     </g>
    </g>
    <g id="xtick_20">
     <g id="text_20">
      <!-- TTE.PA -->
      <g transform="translate(1240.254149 1952.801699)rotate(-45)scale(0.08 -0.08)">
       <defs>
        <path d="M -19 4666 
L 3928 4666 
L 3928 4134 
L 2272 4134 
L 2272 0 
L 1638 0 
L 1638 4134 
L -19 4134 
L -19 4666 
z
" id="DejaVuSans-54" transform="scale(0.015625)"/>
       </defs>
       <use xlink:href="#DejaVuSans-54"/>
       <use x="59.333984" xlink:href="#DejaVuSans-54"/>
       <use x="120.417969" xlink:href="#DejaVuSans-45"/>
       <use x="183.601562" xlink:href="#DejaVuSans-2e"/>
       <use x="215.388672" xlink:href="#DejaVuSans-50"/>
       <use x="269.316406" xlink:href="#DejaVuSans-41"/>
      </g>
     </g>
    </g>
    <g id="xtick_21">
     <g id="text_21">
      <!-- ENEL.MI -->
      <g transform="translate(1283.916753 1956.578533)rotate(-45)scale(0.08 -0.08)">
       <use xlink:href="#DejaVuSans-45"/>
       <use x="63.183594" xlink:href="#DejaVuSans-4e"/>
       <use x="137.988281" xlink:href="#DejaVuSans-45"/>
       <use x="201.171875" xlink:href="#DejaVuSans-4c"/>
       <use x="256.884766" xlink:href="#DejaVuSans-2e"/>
       <use x="288.671875" xlink:href="#DejaVuSans-4d"/>
       <use x="374.951172" xlink:href="#DejaVuSans-49"/>
      </g>
     </g>
    </g>
    <g id="xtick_22">
     <g id="text_22">
      <!-- IBE.MC -->
      <g transform="translate(1331.031363 1953.451353)rotate(-45)scale(0.08 -0.08)">
       <use xlink:href="#DejaVuSans-49"/>
       <use x="29.492188" xlink:href="#DejaVuSans-42"/>
       <use x="98.095703" xlink:href="#DejaVuSans-45"/>
       <use x="161.279297" xlink:href="#DejaVuSans-2e"/>
       <use x="193.066406" xlink:href="#DejaVuSans-4d"/>
       <use x="279.345703" xlink:href="#DejaVuSans-43"/>
      </g>
     </g>
    </g>
    <g id="xtick_23">
     <g id="text_23">
      <!-- DTE.DE -->
      <g transform="translate(1375.902235 1954.81165)rotate(-45)scale(0.08 -0.08)">
       <use xlink:href="#DejaVuSans-44"/>
       <use x="77.001953" xlink:href="#DejaVuSans-54"/>
       <use x="138.085938" xlink:href="#DejaVuSans-45"/>
       <use x="201.269531" xlink:href="#DejaVuSans-2e"/>
       <use x="233.056641" xlink:href="#DejaVuSans-44"/>
       <use x="310.058594" xlink:href="#DejaVuSans-45"/>
      </g>
     </g>
    </g>
    <g id="xtick_24">
     <g id="text_24">
      <!-- KNEBV.HE -->
      <g transform="translate(1418.015833 1961.686496)rotate(-45)scale(0.08 -0.08)">
       <defs>
        <path d="M 628 4666 
L 1259 4666 
L 1259 2694 
L 3353 4666 
L 4166 4666 
L 1850 2491 
L 4331 0 
L 3500 0 
L 1259 2247 
L 1259 0 
L 628 0 
L 628 4666 
z
" id="DejaVuSans-4b" transform="scale(0.015625)"/>
       </defs>
       <use xlink:href="#DejaVuSans-4b"/>
       <use x="65.576172" xlink:href="#DejaVuSans-4e"/>
       <use x="140.380859" xlink:href="#DejaVuSans-45"/>
       <use x="203.564453" xlink:href="#DejaVuSans-42"/>
       <use x="269.042969" xlink:href="#DejaVuSans-56"/>
       <use x="324.576172" xlink:href="#DejaVuSans-2e"/>
       <use x="356.363281" xlink:href="#DejaVuSans-48"/>
       <use x="431.558594" xlink:href="#DejaVuSans-45"/>
      </g>
     </g>
    </g>
    <g id="xtick_25">
     <g id="text_25">
      <!-- DB1.DE -->
      <g transform="translate(1466.778886 1955.262431)rotate(-45)scale(0.08 -0.08)">
       <defs>
        <path d="M 794 531 
L 1825 531 
L 1825 4091 
L 703 3866 
L 703 4441 
L 1819 4666 
L 2450 4666 
L 2450 531 
L 3481 531 
L 3481 0 
L 794 0 
L 794 531 
z
" id="DejaVuSans-31" transform="scale(0.015625)"/>
       </defs>
       <use xlink:href="#DejaVuSans-44"/>
       <use x="77.001953" xlink:href="#DejaVuSans-42"/>
       <use x="145.605469" xlink:href="#DejaVuSans-31"/>
       <use x="209.228516" xlink:href="#DejaVuSans-2e"/>
       <use x="241.015625" xlink:href="#DejaVuSans-44"/>
       <use x="318.017578" xlink:href="#DejaVuSans-45"/>
      </g>
     </g>
    </g>
    <g id="xtick_26">
     <g id="text_26">
      <!-- INGA.AS -->
      <g transform="translate(1511.455303 1957.011636)rotate(-45)scale(0.08 -0.08)">
       <use xlink:href="#DejaVuSans-49"/>
       <use x="29.492188" xlink:href="#DejaVuSans-4e"/>
       <use x="104.296875" xlink:href="#DejaVuSans-47"/>
       <use x="181.787109" xlink:href="#DejaVuSans-41"/>
       <use x="248.445312" xlink:href="#DejaVuSans-2e"/>
       <use x="280.232422" xlink:href="#DejaVuSans-41"/>
       <use x="348.640625" xlink:href="#DejaVuSans-53"/>
      </g>
     </g>
    </g>
    <g id="xtick_27">
     <g id="text_27">
      <!-- BNP.PA -->
      <g transform="translate(1558.984013 1953.056257)rotate(-45)scale(0.08 -0.08)">
       <use xlink:href="#DejaVuSans-42"/>
       <use x="68.603516" xlink:href="#DejaVuSans-4e"/>
       <use x="143.408203" xlink:href="#DejaVuSans-50"/>
       <use x="188.085938" xlink:href="#DejaVuSans-2e"/>
       <use x="219.873047" xlink:href="#DejaVuSans-50"/>
       <use x="273.800781" xlink:href="#DejaVuSans-41"/>
      </g>
     </g>
    </g>
    <g id="xtick_28">
     <g id="text_28">
      <!-- ISP.MI -->
      <g transform="translate(1606.146795 1949.832734)rotate(-45)scale(0.08 -0.08)">
       <use xlink:href="#DejaVuSans-49"/>
       <use x="29.492188" xlink:href="#DejaVuSans-53"/>
       <use x="92.96875" xlink:href="#DejaVuSans-50"/>
       <use x="137.646484" xlink:href="#DejaVuSans-2e"/>
       <use x="169.433594" xlink:href="#DejaVuSans-4d"/>
       <use x="255.712891" xlink:href="#DejaVuSans-49"/>
      </g>
     </g>
    </g>
    <g id="xtick_29">
     <g id="text_29">
      <!-- BBVA.MC -->
      <g transform="translate(1647.018094 1959.192176)rotate(-45)scale(0.08 -0.08)">
       <use xlink:href="#DejaVuSans-42"/>
       <use x="68.603516" xlink:href="#DejaVuSans-42"/>
       <use x="134.082031" xlink:href="#DejaVuSans-56"/>
       <use x="196.115234" xlink:href="#DejaVuSans-41"/>
       <use x="262.773438" xlink:href="#DejaVuSans-2e"/>
       <use x="294.560547" xlink:href="#DejaVuSans-4d"/>
       <use x="380.839844" xlink:href="#DejaVuSans-43"/>
      </g>
     </g>
    </g>
    <g id="xtick_30">
     <g id="text_30">
      <!-- SAN.MC -->
      <g transform="translate(1694.102211 1956.125985)rotate(-45)scale(0.08 -0.08)">
       <use xlink:href="#DejaVuSans-53"/>
       <use x="65.351562" xlink:href="#DejaVuSans-41"/>
       <use x="133.759766" xlink:href="#DejaVuSans-4e"/>
       <use x="208.564453" xlink:href="#DejaVuSans-2e"/>
       <use x="240.351562" xlink:href="#DejaVuSans-4d"/>
       <use x="326.630859" xlink:href="#DejaVuSans-43"/>
      </g>
     </g>
    </g>
    <g id="xtick_31">
     <g id="text_31">
      <!-- DG.PA -->
      <g transform="translate(1742.138711 1951.155024)rotate(-45)scale(0.08 -0.08)">
       <use xlink:href="#DejaVuSans-44"/>
       <use x="77.001953" xlink:href="#DejaVuSans-47"/>
       <use x="154.492188" xlink:href="#DejaVuSans-2e"/>
       <use x="186.279297" xlink:href="#DejaVuSans-50"/>
       <use x="240.207031" xlink:href="#DejaVuSans-41"/>
      </g>
     </g>
    </g>
    <g id="xtick_32">
     <g id="text_32">
      <!-- AIR.PA -->
      <g transform="translate(1787.427218 1951.680051)rotate(-45)scale(0.08 -0.08)">
       <use xlink:href="#DejaVuSans-41"/>
       <use x="68.408203" xlink:href="#DejaVuSans-49"/>
       <use x="97.900391" xlink:href="#DejaVuSans-52"/>
       <use x="163.757812" xlink:href="#DejaVuSans-2e"/>
       <use x="195.544922" xlink:href="#DejaVuSans-50"/>
       <use x="249.472656" xlink:href="#DejaVuSans-41"/>
      </g>
     </g>
    </g>
    <g id="xtick_33">
     <g id="text_33">
      <!-- SAF.PA -->
      <g transform="translate(1832.656063 1952.324402)rotate(-45)scale(0.08 -0.08)">
       <use xlink:href="#DejaVuSans-53"/>
       <use x="65.351562" xlink:href="#DejaVuSans-41"/>
       <use x="133.759766" xlink:href="#DejaVuSans-46"/>
       <use x="175.154297" xlink:href="#DejaVuSans-2e"/>
       <use x="206.941406" xlink:href="#DejaVuSans-50"/>
       <use x="260.869141" xlink:href="#DejaVuSans-41"/>
      </g>
     </g>
    </g>
    <g id="xtick_34">
     <g id="text_34">
      <!-- ADS.DE -->
      <g transform="translate(1876.747792 1955.242985)rotate(-45)scale(0.08 -0.08)">
       <use xlink:href="#DejaVuSans-41"/>
       <use x="68.408203" xlink:href="#DejaVuSans-44"/>
       <use x="145.410156" xlink:href="#DejaVuSans-53"/>
       <use x="208.886719" xlink:href="#DejaVuSans-2e"/>
       <use x="240.673828" xlink:href="#DejaVuSans-44"/>
       <use x="317.675781" xlink:href="#DejaVuSans-45"/>
      </g>
     </g>
    </g>
    <g id="xtick_35">
     <g id="text_35">
      <!-- STLA.MI -->
      <g transform="translate(1921.849358 1956.141895)rotate(-45)scale(0.08 -0.08)">
       <use xlink:href="#DejaVuSans-53"/>
       <use x="63.476562" xlink:href="#DejaVuSans-54"/>
       <use x="124.560547" xlink:href="#DejaVuSans-4c"/>
       <use x="182.523438" xlink:href="#DejaVuSans-41"/>
       <use x="249.181641" xlink:href="#DejaVuSans-2e"/>
       <use x="280.96875" xlink:href="#DejaVuSans-4d"/>
       <use x="367.248047" xlink:href="#DejaVuSans-49"/>
      </g>
     </g>
    </g>
    <g id="xtick_36">
     <g id="text_36">
      <!-- FLTR.IR -->
      <g transform="translate(1968.519375 1953.903902)rotate(-45)scale(0.08 -0.08)">
       <use xlink:href="#DejaVuSans-46"/>
       <use x="57.519531" xlink:href="#DejaVuSans-4c"/>
       <use x="99.482422" xlink:href="#DejaVuSans-54"/>
       <use x="160.566406" xlink:href="#DejaVuSans-52"/>
       <use x="226.423828" xlink:href="#DejaVuSans-2e"/>
       <use x="258.210938" xlink:href="#DejaVuSans-49"/>
       <use x="287.703125" xlink:href="#DejaVuSans-52"/>
      </g>
     </g>
    </g>
    <g id="xtick_37">
     <g id="text_37">
      <!-- ASML.AS -->
      <g transform="translate(2011.797047 1958.450598)rotate(-45)scale(0.08 -0.08)">
       <use xlink:href="#DejaVuSans-41"/>
       <use x="68.408203" xlink:href="#DejaVuSans-53"/>
       <use x="131.884766" xlink:href="#DejaVuSans-4d"/>
       <use x="218.164062" xlink:href="#DejaVuSans-4c"/>
       <use x="273.876953" xlink:href="#DejaVuSans-2e"/>
       <use x="305.664062" xlink:href="#DejaVuSans-41"/>
       <use x="374.072266" xlink:href="#DejaVuSans-53"/>
      </g>
     </g>
    </g>
    <g id="xtick_38">
     <g id="text_38">
      <!-- VNA.DE -->
      <g transform="translate(2058.924031 1955.29867)rotate(-45)scale(0.08 -0.08)">
       <use xlink:href="#DejaVuSans-56"/>
       <use x="68.408203" xlink:href="#DejaVuSans-4e"/>
       <use x="143.212891" xlink:href="#DejaVuSans-41"/>
       <use x="209.871094" xlink:href="#DejaVuSans-2e"/>
       <use x="241.658203" xlink:href="#DejaVuSans-44"/>
       <use x="318.660156" xlink:href="#DejaVuSans-45"/>
      </g>
     </g>
    </g>
    <g id="xtick_39">
     <g id="text_39">
      <!-- SAP.DE -->
      <g transform="translate(2105.364239 1953.520296)rotate(-45)scale(0.08 -0.08)">
       <use xlink:href="#DejaVuSans-53"/>
       <use x="65.351562" xlink:href="#DejaVuSans-41"/>
       <use x="133.759766" xlink:href="#DejaVuSans-50"/>
       <use x="178.4375" xlink:href="#DejaVuSans-2e"/>
       <use x="210.224609" xlink:href="#DejaVuSans-44"/>
       <use x="287.226562" xlink:href="#DejaVuSans-45"/>
      </g>
     </g>
    </g>
    <g id="xtick_40">
     <g id="text_40">
      <!-- ITX.MC -->
      <g transform="translate(2151.012486 1953.325842)rotate(-45)scale(0.08 -0.08)">
       <use xlink:href="#DejaVuSans-49"/>
       <use x="29.492188" xlink:href="#DejaVuSans-54"/>
       <use x="90.576172" xlink:href="#DejaVuSans-58"/>
       <use x="159.082031" xlink:href="#DejaVuSans-2e"/>
       <use x="190.869141" xlink:href="#DejaVuSans-4d"/>
       <use x="277.148438" xlink:href="#DejaVuSans-43"/>
      </g>
     </g>
    </g>
    <g id="xtick_41">
     <g id="text_41">
      <!-- ABI.BR -->
      <g transform="translate(2196.862701 1952.727453)rotate(-45)scale(0.08 -0.08)">
       <use xlink:href="#DejaVuSans-41"/>
       <use x="68.408203" xlink:href="#DejaVuSans-42"/>
       <use x="137.011719" xlink:href="#DejaVuSans-49"/>
       <use x="166.503906" xlink:href="#DejaVuSans-2e"/>
       <use x="198.291016" xlink:href="#DejaVuSans-42"/>
       <use x="266.894531" xlink:href="#DejaVuSans-52"/>
      </g>
     </g>
    </g>
    <g id="xtick_42">
     <g id="text_42">
      <!-- ADYEN.AS -->
      <g transform="translate(2237.711019 1962.132857)rotate(-45)scale(0.08 -0.08)">
       <use xlink:href="#DejaVuSans-41"/>
       <use x="68.408203" xlink:href="#DejaVuSans-44"/>
       <use x="139.910156" xlink:href="#DejaVuSans-59"/>
       <use x="200.994141" xlink:href="#DejaVuSans-45"/>
       <use x="264.177734" xlink:href="#DejaVuSans-4e"/>
       <use x="338.982422" xlink:href="#DejaVuSans-2e"/>
       <use x="370.769531" xlink:href="#DejaVuSans-41"/>
       <use x="439.177734" xlink:href="#DejaVuSans-53"/>
      </g>
     </g>
    </g>
    <g id="xtick_43">
     <g id="text_43">
      <!-- KER.PA -->
      <g transform="translate(2287.615608 1953.425721)rotate(-45)scale(0.08 -0.08)">
       <use xlink:href="#DejaVuSans-4b"/>
       <use x="65.576172" xlink:href="#DejaVuSans-45"/>
       <use x="128.759766" xlink:href="#DejaVuSans-52"/>
       <use x="194.617188" xlink:href="#DejaVuSans-2e"/>
       <use x="226.404297" xlink:href="#DejaVuSans-50"/>
       <use x="280.332031" xlink:href="#DejaVuSans-41"/>
      </g>
     </g>
    </g>
    <g id="xtick_44">
     <g id="text_44">
      <!-- VOW.DE -->
      <g transform="translate(2331.583151 1956.592675)rotate(-45)scale(0.08 -0.08)">
       <use xlink:href="#DejaVuSans-56"/>
       <use x="66.658203" xlink:href="#DejaVuSans-4f"/>
       <use x="145.369141" xlink:href="#DejaVuSans-57"/>
       <use x="232.746094" xlink:href="#DejaVuSans-2e"/>
       <use x="264.533203" xlink:href="#DejaVuSans-44"/>
       <use x="341.535156" xlink:href="#DejaVuSans-45"/>
      </g>
     </g>
    </g>
    <g id="xtick_45">
     <g id="text_45">
      <!-- BMW.DE -->
      <g transform="translate(2376.865029 1957.13096)rotate(-45)scale(0.08 -0.08)">
       <use xlink:href="#DejaVuSans-42"/>
       <use x="68.603516" xlink:href="#DejaVuSans-4d"/>
       <use x="154.882812" xlink:href="#DejaVuSans-57"/>
       <use x="242.259766" xlink:href="#DejaVuSans-2e"/>
       <use x="274.046875" xlink:href="#DejaVuSans-44"/>
       <use x="351.048828" xlink:href="#DejaVuSans-45"/>
      </g>
     </g>
    </g>
    <g id="xtick_46">
     <g id="text_46">
      <!-- RI.PA -->
      <g transform="translate(2426.973795 1948.01547)rotate(-45)scale(0.08 -0.08)">
       <use xlink:href="#DejaVuSans-52"/>
       <use x="69.482422" xlink:href="#DejaVuSans-49"/>
       <use x="98.974609" xlink:href="#DejaVuSans-2e"/>
       <use x="130.761719" xlink:href="#DejaVuSans-50"/>
       <use x="184.689453" xlink:href="#DejaVuSans-41"/>
      </g>
     </g>
    </g>
    <g id="xtick_47">
     <g id="text_47">
      <!-- UMG.AS -->
      <g transform="translate(2468.352001 1956.361098)rotate(-45)scale(0.08 -0.08)">
       <use xlink:href="#DejaVuSans-55"/>
       <use x="73.193359" xlink:href="#DejaVuSans-4d"/>
       <use x="159.472656" xlink:href="#DejaVuSans-47"/>
       <use x="236.962891" xlink:href="#DejaVuSans-2e"/>
       <use x="268.75" xlink:href="#DejaVuSans-41"/>
       <use x="337.158203" xlink:href="#DejaVuSans-53"/>
      </g>
     </g>
    </g>
    <g id="xtick_48">
     <g id="text_48">
      <!-- AD.AS -->
      <g transform="translate(2516.492358 1951.182424)rotate(-45)scale(0.08 -0.08)">
       <use xlink:href="#DejaVuSans-41"/>
       <use x="68.408203" xlink:href="#DejaVuSans-44"/>
       <use x="145.410156" xlink:href="#DejaVuSans-2e"/>
       <use x="177.197266" xlink:href="#DejaVuSans-41"/>
       <use x="245.605469" xlink:href="#DejaVuSans-53"/>
      </g>
     </g>
    </g>
    <g id="xtick_49">
     <g id="text_49">
      <!-- PRX.AS -->
      <g transform="translate(2560.547848 1954.173486)rotate(-45)scale(0.08 -0.08)">
       <use xlink:href="#DejaVuSans-50"/>
       <use x="60.302734" xlink:href="#DejaVuSans-52"/>
       <use x="129.785156" xlink:href="#DejaVuSans-58"/>
       <use x="198.291016" xlink:href="#DejaVuSans-2e"/>
       <use x="230.078125" xlink:href="#DejaVuSans-41"/>
       <use x="298.486328" xlink:href="#DejaVuSans-53"/>
      </g>
     </g>
    </g>
    <g id="text_50">
     <!-- Ticker Symbols -->
     <g transform="translate(1438.297656 1974.907743)scale(0.1 -0.1)">
      <defs>
       <path d="M 603 3500 
L 1178 3500 
L 1178 0 
L 603 0 
L 603 3500 
z
M 603 4863 
L 1178 4863 
L 1178 4134 
L 603 4134 
L 603 4863 
z
" id="DejaVuSans-69" transform="scale(0.015625)"/>
       <path d="M 3122 3366 
L 3122 2828 
Q 2878 2963 2633 3030 
Q 2388 3097 2138 3097 
Q 1578 3097 1268 2742 
Q 959 2388 959 1747 
Q 959 1106 1268 751 
Q 1578 397 2138 397 
Q 2388 397 2633 464 
Q 2878 531 3122 666 
L 3122 134 
Q 2881 22 2623 -34 
Q 2366 -91 2075 -91 
Q 1284 -91 818 406 
Q 353 903 353 1747 
Q 353 2603 823 3093 
Q 1294 3584 2113 3584 
Q 2378 3584 2631 3529 
Q 2884 3475 3122 3366 
z
" id="DejaVuSans-63" transform="scale(0.015625)"/>
       <path d="M 581 4863 
L 1159 4863 
L 1159 1991 
L 2875 3500 
L 3609 3500 
L 1753 1863 
L 3688 0 
L 2938 0 
L 1159 1709 
L 1159 0 
L 581 0 
L 581 4863 
z
" id="DejaVuSans-6b" transform="scale(0.015625)"/>
       <path d="M 3597 1894 
L 3597 1613 
L 953 1613 
Q 991 1019 1311 708 
Q 1631 397 2203 397 
Q 2534 397 2845 478 
Q 3156 559 3463 722 
L 3463 178 
Q 3153 47 2828 -22 
Q 2503 -91 2169 -91 
Q 1331 -91 842 396 
Q 353 884 353 1716 
Q 353 2575 817 3079 
Q 1281 3584 2069 3584 
Q 2775 3584 3186 3129 
Q 3597 2675 3597 1894 
z
M 3022 2063 
Q 3016 2534 2758 2815 
Q 2500 3097 2075 3097 
Q 1594 3097 1305 2825 
Q 1016 2553 972 2059 
L 3022 2063 
z
" id="DejaVuSans-65" transform="scale(0.015625)"/>
       <path d="M 2631 2963 
Q 2534 3019 2420 3045 
Q 2306 3072 2169 3072 
Q 1681 3072 1420 2755 
Q 1159 2438 1159 1844 
L 1159 0 
L 581 0 
L 581 3500 
L 1159 3500 
L 1159 2956 
Q 1341 3275 1631 3429 
Q 1922 3584 2338 3584 
Q 2397 3584 2469 3576 
Q 2541 3569 2628 3553 
L 2631 2963 
z
" id="DejaVuSans-72" transform="scale(0.015625)"/>
       <path id="DejaVuSans-20" transform="scale(0.015625)"/>
       <path d="M 2059 -325 
Q 1816 -950 1584 -1140 
Q 1353 -1331 966 -1331 
L 506 -1331 
L 506 -850 
L 844 -850 
Q 1081 -850 1212 -737 
Q 1344 -625 1503 -206 
L 1606 56 
L 191 3500 
L 800 3500 
L 1894 763 
L 2988 3500 
L 3597 3500 
L 2059 -325 
z
" id="DejaVuSans-79" transform="scale(0.015625)"/>
       <path d="M 3328 2828 
Q 3544 3216 3844 3400 
Q 4144 3584 4550 3584 
Q 5097 3584 5394 3201 
Q 5691 2819 5691 2113 
L 5691 0 
L 5113 0 
L 5113 2094 
Q 5113 2597 4934 2840 
Q 4756 3084 4391 3084 
Q 3944 3084 3684 2787 
Q 3425 2491 3425 1978 
L 3425 0 
L 2847 0 
L 2847 2094 
Q 2847 2600 2669 2842 
Q 2491 3084 2119 3084 
Q 1678 3084 1418 2786 
Q 1159 2488 1159 1978 
L 1159 0 
L 581 0 
L 581 3500 
L 1159 3500 
L 1159 2956 
Q 1356 3278 1631 3431 
Q 1906 3584 2284 3584 
Q 2666 3584 2933 3390 
Q 3200 3197 3328 2828 
z
" id="DejaVuSans-6d" transform="scale(0.015625)"/>
       <path d="M 3116 1747 
Q 3116 2381 2855 2742 
Q 2594 3103 2138 3103 
Q 1681 3103 1420 2742 
Q 1159 2381 1159 1747 
Q 1159 1113 1420 752 
Q 1681 391 2138 391 
Q 2594 391 2855 752 
Q 3116 1113 3116 1747 
z
M 1159 2969 
Q 1341 3281 1617 3432 
Q 1894 3584 2278 3584 
Q 2916 3584 3314 3078 
Q 3713 2572 3713 1747 
Q 3713 922 3314 415 
Q 2916 -91 2278 -91 
Q 1894 -91 1617 61 
Q 1341 213 1159 525 
L 1159 0 
L 581 0 
L 581 4863 
L 1159 4863 
L 1159 2969 
z
" id="DejaVuSans-62" transform="scale(0.015625)"/>
       <path d="M 1959 3097 
Q 1497 3097 1228 2736 
Q 959 2375 959 1747 
Q 959 1119 1226 758 
Q 1494 397 1959 397 
Q 2419 397 2687 759 
Q 2956 1122 2956 1747 
Q 2956 2369 2687 2733 
Q 2419 3097 1959 3097 
z
M 1959 3584 
Q 2709 3584 3137 3096 
Q 3566 2609 3566 1747 
Q 3566 888 3137 398 
Q 2709 -91 1959 -91 
Q 1206 -91 779 398 
Q 353 888 353 1747 
Q 353 2609 779 3096 
Q 1206 3584 1959 3584 
z
" id="DejaVuSans-6f" transform="scale(0.015625)"/>
       <path d="M 603 4863 
L 1178 4863 
L 1178 0 
L 603 0 
L 603 4863 
z
" id="DejaVuSans-6c" transform="scale(0.015625)"/>
       <path d="M 2834 3397 
L 2834 2853 
Q 2591 2978 2328 3040 
Q 2066 3103 1784 3103 
Q 1356 3103 1142 2972 
Q 928 2841 928 2578 
Q 928 2378 1081 2264 
Q 1234 2150 1697 2047 
L 1894 2003 
Q 2506 1872 2764 1633 
Q 3022 1394 3022 966 
Q 3022 478 2636 193 
Q 2250 -91 1575 -91 
Q 1294 -91 989 -36 
Q 684 19 347 128 
L 347 722 
Q 666 556 975 473 
Q 1284 391 1588 391 
Q 1994 391 2212 530 
Q 2431 669 2431 922 
Q 2431 1156 2273 1281 
Q 2116 1406 1581 1522 
L 1381 1569 
Q 847 1681 609 1914 
Q 372 2147 372 2553 
Q 372 3047 722 3315 
Q 1072 3584 1716 3584 
Q 2034 3584 2315 3537 
Q 2597 3491 2834 3397 
z
" id="DejaVuSans-73" transform="scale(0.015625)"/>
      </defs>
      <use xlink:href="#DejaVuSans-54"/>
      <use x="57.958984" xlink:href="#DejaVuSans-69"/>
      <use x="85.742188" xlink:href="#DejaVuSans-63"/>
      <use x="140.722656" xlink:href="#DejaVuSans-6b"/>
      <use x="195.007812" xlink:href="#DejaVuSans-65"/>
      <use x="256.53125" xlink:href="#DejaVuSans-72"/>
      <use x="297.644531" xlink:href="#DejaVuSans-20"/>
      <use x="329.431641" xlink:href="#DejaVuSans-53"/>
      <use x="392.908203" xlink:href="#DejaVuSans-79"/>
      <use x="452.087891" xlink:href="#DejaVuSans-6d"/>
      <use x="549.5" xlink:href="#DejaVuSans-62"/>
      <use x="612.976562" xlink:href="#DejaVuSans-6f"/>
      <use x="674.158203" xlink:href="#DejaVuSans-6c"/>
      <use x="701.941406" xlink:href="#DejaVuSans-73"/>
     </g>
    </g>
   </g>
   <g id="matplotlib.axis_2">
    <g id="ytick_1">
     <g id="line2d_1">
      <defs>
       <path d="M 0 0 
L -3.5 0 
" id="mf0de74a610" style="stroke:#000000;stroke-width:0.8;"/>
      </defs>
      <g>
       <use style="stroke:#000000;stroke-width:0.8;" x="360" xlink:href="#mf0de74a610" y="1922.4"/>
      </g>
     </g>
     <g id="text_51">
      <!-- 0 -->
      <g transform="translate(346.6375 1926.199219)scale(0.1 -0.1)">
       <defs>
        <path d="M 2034 4250 
Q 1547 4250 1301 3770 
Q 1056 3291 1056 2328 
Q 1056 1369 1301 889 
Q 1547 409 2034 409 
Q 2525 409 2770 889 
Q 3016 1369 3016 2328 
Q 3016 3291 2770 3770 
Q 2525 4250 2034 4250 
z
M 2034 4750 
Q 2819 4750 3233 4129 
Q 3647 3509 3647 2328 
Q 3647 1150 3233 529 
Q 2819 -91 2034 -91 
Q 1250 -91 836 529 
Q 422 1150 422 2328 
Q 422 3509 836 4129 
Q 1250 4750 2034 4750 
z
" id="DejaVuSans-30" transform="scale(0.015625)"/>
       </defs>
       <use xlink:href="#DejaVuSans-30"/>
      </g>
     </g>
    </g>
    <g id="ytick_2">
     <g id="line2d_2">
      <g>
       <use style="stroke:#000000;stroke-width:0.8;" x="360" xlink:href="#mf0de74a610" y="1677.419754"/>
      </g>
     </g>
     <g id="text_52">
      <!-- 2 -->
      <g transform="translate(346.6375 1681.218973)scale(0.1 -0.1)">
       <use xlink:href="#DejaVuSans-32"/>
      </g>
     </g>
    </g>
    <g id="ytick_3">
     <g id="line2d_3">
      <g>
       <use style="stroke:#000000;stroke-width:0.8;" x="360" xlink:href="#mf0de74a610" y="1432.439508"/>
      </g>
     </g>
     <g id="text_53">
      <!-- 4 -->
      <g transform="translate(346.6375 1436.238727)scale(0.1 -0.1)">
       <defs>
        <path d="M 2419 4116 
L 825 1625 
L 2419 1625 
L 2419 4116 
z
M 2253 4666 
L 3047 4666 
L 3047 1625 
L 3713 1625 
L 3713 1100 
L 3047 1100 
L 3047 0 
L 2419 0 
L 2419 1100 
L 313 1100 
L 313 1709 
L 2253 4666 
z
" id="DejaVuSans-34" transform="scale(0.015625)"/>
       </defs>
       <use xlink:href="#DejaVuSans-34"/>
      </g>
     </g>
    </g>
    <g id="ytick_4">
     <g id="line2d_4">
      <g>
       <use style="stroke:#000000;stroke-width:0.8;" x="360" xlink:href="#mf0de74a610" y="1187.459263"/>
      </g>
     </g>
     <g id="text_54">
      <!-- 6 -->
      <g transform="translate(346.6375 1191.258481)scale(0.1 -0.1)">
       <defs>
        <path d="M 2113 2584 
Q 1688 2584 1439 2293 
Q 1191 2003 1191 1497 
Q 1191 994 1439 701 
Q 1688 409 2113 409 
Q 2538 409 2786 701 
Q 3034 994 3034 1497 
Q 3034 2003 2786 2293 
Q 2538 2584 2113 2584 
z
M 3366 4563 
L 3366 3988 
Q 3128 4100 2886 4159 
Q 2644 4219 2406 4219 
Q 1781 4219 1451 3797 
Q 1122 3375 1075 2522 
Q 1259 2794 1537 2939 
Q 1816 3084 2150 3084 
Q 2853 3084 3261 2657 
Q 3669 2231 3669 1497 
Q 3669 778 3244 343 
Q 2819 -91 2113 -91 
Q 1303 -91 875 529 
Q 447 1150 447 2328 
Q 447 3434 972 4092 
Q 1497 4750 2381 4750 
Q 2619 4750 2861 4703 
Q 3103 4656 3366 4563 
z
" id="DejaVuSans-36" transform="scale(0.015625)"/>
       </defs>
       <use xlink:href="#DejaVuSans-36"/>
      </g>
     </g>
    </g>
    <g id="ytick_5">
     <g id="line2d_5">
      <g>
       <use style="stroke:#000000;stroke-width:0.8;" x="360" xlink:href="#mf0de74a610" y="942.479017"/>
      </g>
     </g>
     <g id="text_55">
      <!-- 8 -->
      <g transform="translate(346.6375 946.278236)scale(0.1 -0.1)">
       <defs>
        <path d="M 2034 2216 
Q 1584 2216 1326 1975 
Q 1069 1734 1069 1313 
Q 1069 891 1326 650 
Q 1584 409 2034 409 
Q 2484 409 2743 651 
Q 3003 894 3003 1313 
Q 3003 1734 2745 1975 
Q 2488 2216 2034 2216 
z
M 1403 2484 
Q 997 2584 770 2862 
Q 544 3141 544 3541 
Q 544 4100 942 4425 
Q 1341 4750 2034 4750 
Q 2731 4750 3128 4425 
Q 3525 4100 3525 3541 
Q 3525 3141 3298 2862 
Q 3072 2584 2669 2484 
Q 3125 2378 3379 2068 
Q 3634 1759 3634 1313 
Q 3634 634 3220 271 
Q 2806 -91 2034 -91 
Q 1263 -91 848 271 
Q 434 634 434 1313 
Q 434 1759 690 2068 
Q 947 2378 1403 2484 
z
M 1172 3481 
Q 1172 3119 1398 2916 
Q 1625 2713 2034 2713 
Q 2441 2713 2670 2916 
Q 2900 3119 2900 3481 
Q 2900 3844 2670 4047 
Q 2441 4250 2034 4250 
Q 1625 4250 1398 4047 
Q 1172 3844 1172 3481 
z
" id="DejaVuSans-38" transform="scale(0.015625)"/>
       </defs>
       <use xlink:href="#DejaVuSans-38"/>
      </g>
     </g>
    </g>
    <g id="ytick_6">
     <g id="line2d_6">
      <g>
       <use style="stroke:#000000;stroke-width:0.8;" x="360" xlink:href="#mf0de74a610" y="697.498771"/>
      </g>
     </g>
     <g id="text_56">
      <!-- 10 -->
      <g transform="translate(340.275 701.29799)scale(0.1 -0.1)">
       <use xlink:href="#DejaVuSans-31"/>
       <use x="63.623047" xlink:href="#DejaVuSans-30"/>
      </g>
     </g>
    </g>
    <g id="ytick_7">
     <g id="line2d_7">
      <g>
       <use style="stroke:#000000;stroke-width:0.8;" x="360" xlink:href="#mf0de74a610" y="452.518525"/>
      </g>
     </g>
     <g id="text_57">
      <!-- 12 -->
      <g transform="translate(340.275 456.317744)scale(0.1 -0.1)">
       <use xlink:href="#DejaVuSans-31"/>
       <use x="63.623047" xlink:href="#DejaVuSans-32"/>
      </g>
     </g>
    </g>
   </g>
   <g id="LineCollection_1">
    <path clip-path="url(#pa0cdbb9644)" d="M 792.734694 1922.4 
L 792.734694 853.932635 
L 838.285714 853.932635 
L 838.285714 1922.4 
" style="fill:none;stroke:#ff7f0e;stroke-width:1.5;"/>
   </g>
   <g id="LineCollection_2">
    <path clip-path="url(#pa0cdbb9644)" d="M 1202.693878 1922.4 
L 1202.693878 1106.615299 
L 1248.244898 1106.615299 
L 1248.244898 1922.4 
" style="fill:none;stroke:#2ca02c;stroke-width:1.5;"/>
   </g>
   <g id="LineCollection_3">
    <path clip-path="url(#pa0cdbb9644)" d="M 1293.795918 1922.4 
L 1293.795918 899.880217 
L 1339.346939 899.880217 
L 1339.346939 1922.4 
" style="fill:none;stroke:#d62728;stroke-width:1.5;"/>
   </g>
   <g id="LineCollection_4">
    <path clip-path="url(#pa0cdbb9644)" d="M 1658.204082 1922.4 
L 1658.204082 1103.57408 
L 1703.755102 1103.57408 
L 1703.755102 1922.4 
" style="fill:none;stroke:#9467bd;stroke-width:1.5;"/>
    <path clip-path="url(#pa0cdbb9644)" d="M 1612.653061 1922.4 
L 1612.653061 960.115693 
L 1680.979592 960.115693 
L 1680.979592 1103.57408 
" style="fill:none;stroke:#9467bd;stroke-width:1.5;"/>
    <path clip-path="url(#pa0cdbb9644)" d="M 1567.102041 1922.4 
L 1567.102041 944.829005 
L 1646.816327 944.829005 
L 1646.816327 960.115693 
" style="fill:none;stroke:#9467bd;stroke-width:1.5;"/>
    <path clip-path="url(#pa0cdbb9644)" d="M 1521.55102 1922.4 
L 1521.55102 912.262495 
L 1606.959184 912.262495 
L 1606.959184 944.829005 
" style="fill:none;stroke:#9467bd;stroke-width:1.5;"/>
   </g>
   <g id="LineCollection_5">
    <path clip-path="url(#pa0cdbb9644)" d="M 1794.857143 1922.4 
L 1794.857143 1000.049998 
L 1840.408163 1000.049998 
L 1840.408163 1922.4 
" style="fill:none;stroke:#8c564b;stroke-width:1.5;"/>
   </g>
   <g id="LineCollection_6">
    <path clip-path="url(#pa0cdbb9644)" d="M 2432.571429 1922.4 
L 2432.571429 1488.517619 
L 2478.122449 1488.517619 
L 2478.122449 1922.4 
" style="fill:none;stroke:#e377c2;stroke-width:1.5;"/>
    <path clip-path="url(#pa0cdbb9644)" d="M 2387.020408 1922.4 
L 2387.020408 1208.417802 
L 2455.346939 1208.417802 
L 2455.346939 1488.517619 
" style="fill:none;stroke:#e377c2;stroke-width:1.5;"/>
    <path clip-path="url(#pa0cdbb9644)" d="M 2341.469388 1922.4 
L 2341.469388 1097.540179 
L 2421.183673 1097.540179 
L 2421.183673 1208.417802 
" style="fill:none;stroke:#e377c2;stroke-width:1.5;"/>
    <path clip-path="url(#pa0cdbb9644)" d="M 2523.673469 1922.4 
L 2523.673469 1035.337635 
L 2569.22449 1035.337635 
L 2569.22449 1922.4 
" style="fill:none;stroke:#e377c2;stroke-width:1.5;"/>
    <path clip-path="url(#pa0cdbb9644)" d="M 2381.326531 1097.540179 
L 2381.326531 1021.758167 
L 2546.44898 1021.758167 
L 2546.44898 1035.337635 
" style="fill:none;stroke:#e377c2;stroke-width:1.5;"/>
    <path clip-path="url(#pa0cdbb9644)" d="M 2295.918367 1922.4 
L 2295.918367 984.033462 
L 2463.887755 984.033462 
L 2463.887755 1021.758167 
" style="fill:none;stroke:#e377c2;stroke-width:1.5;"/>
    <path clip-path="url(#pa0cdbb9644)" d="M 2250.367347 1922.4 
L 2250.367347 968.111388 
L 2379.903061 968.111388 
L 2379.903061 984.033462 
" style="fill:none;stroke:#e377c2;stroke-width:1.5;"/>
    <path clip-path="url(#pa0cdbb9644)" d="M 2204.816327 1922.4 
L 2204.816327 942.007302 
L 2315.135204 942.007302 
L 2315.135204 968.111388 
" style="fill:none;stroke:#e377c2;stroke-width:1.5;"/>
    <path clip-path="url(#pa0cdbb9644)" d="M 2159.265306 1922.4 
L 2159.265306 910.67569 
L 2259.975765 910.67569 
L 2259.975765 942.007302 
" style="fill:none;stroke:#e377c2;stroke-width:1.5;"/>
    <path clip-path="url(#pa0cdbb9644)" d="M 2113.714286 1922.4 
L 2113.714286 886.061724 
L 2209.620536 886.061724 
L 2209.620536 910.67569 
" style="fill:none;stroke:#e377c2;stroke-width:1.5;"/>
    <path clip-path="url(#pa0cdbb9644)" d="M 2068.163265 1922.4 
L 2068.163265 865.094253 
L 2161.667411 865.094253 
L 2161.667411 886.061724 
" style="fill:none;stroke:#e377c2;stroke-width:1.5;"/>
    <path clip-path="url(#pa0cdbb9644)" d="M 2022.612245 1922.4 
L 2022.612245 856.298246 
L 2114.915338 856.298246 
L 2114.915338 865.094253 
" style="fill:none;stroke:#e377c2;stroke-width:1.5;"/>
    <path clip-path="url(#pa0cdbb9644)" d="M 1977.061224 1922.4 
L 1977.061224 851.422836 
L 2068.763791 851.422836 
L 2068.763791 856.298246 
" style="fill:none;stroke:#e377c2;stroke-width:1.5;"/>
    <path clip-path="url(#pa0cdbb9644)" d="M 1931.510204 1922.4 
L 1931.510204 824.833983 
L 2022.912508 824.833983 
L 2022.912508 851.422836 
" style="fill:none;stroke:#e377c2;stroke-width:1.5;"/>
   </g>
   <g id="LineCollection_7">
    <path clip-path="url(#pa0cdbb9644)" d="M 382.77551 1922.4 
L 382.77551 438.472869 
L 428.326531 438.472869 
L 428.326531 1922.4 
" style="fill:none;stroke:#1f77b4;stroke-width:1.5;"/>
    <path clip-path="url(#pa0cdbb9644)" d="M 656.081633 1922.4 
L 656.081633 640.38987 
L 701.632653 640.38987 
L 701.632653 1922.4 
" style="fill:none;stroke:#1f77b4;stroke-width:1.5;"/>
    <path clip-path="url(#pa0cdbb9644)" d="M 747.183673 1922.4 
L 747.183673 721.379227 
L 815.510204 721.379227 
L 815.510204 853.932635 
" style="fill:none;stroke:#1f77b4;stroke-width:1.5;"/>
    <path clip-path="url(#pa0cdbb9644)" d="M 929.387755 1922.4 
L 929.387755 646.6592 
L 974.938776 646.6592 
L 974.938776 1922.4 
" style="fill:none;stroke:#1f77b4;stroke-width:1.5;"/>
    <path clip-path="url(#pa0cdbb9644)" d="M 1225.469388 1106.615299 
L 1225.469388 746.114602 
L 1316.571429 746.114602 
L 1316.571429 899.880217 
" style="fill:none;stroke:#1f77b4;stroke-width:1.5;"/>
    <path clip-path="url(#pa0cdbb9644)" d="M 1885.959184 1922.4 
L 1885.959184 800.865985 
L 1977.211356 800.865985 
L 1977.211356 824.833983 
" style="fill:none;stroke:#1f77b4;stroke-width:1.5;"/>
    <path clip-path="url(#pa0cdbb9644)" d="M 1817.632653 1000.049998 
L 1817.632653 771.423797 
L 1931.58527 771.423797 
L 1931.58527 800.865985 
" style="fill:none;stroke:#1f77b4;stroke-width:1.5;"/>
    <path clip-path="url(#pa0cdbb9644)" d="M 1749.306122 1922.4 
L 1749.306122 764.207287 
L 1874.608961 764.207287 
L 1874.608961 771.423797 
" style="fill:none;stroke:#1f77b4;stroke-width:1.5;"/>
    <path clip-path="url(#pa0cdbb9644)" d="M 1564.255102 912.262495 
L 1564.255102 727.672968 
L 1811.957542 727.672968 
L 1811.957542 764.207287 
" style="fill:none;stroke:#1f77b4;stroke-width:1.5;"/>
    <path clip-path="url(#pa0cdbb9644)" d="M 1476 1922.4 
L 1476 723.791017 
L 1688.106322 723.791017 
L 1688.106322 727.672968 
" style="fill:none;stroke:#1f77b4;stroke-width:1.5;"/>
    <path clip-path="url(#pa0cdbb9644)" d="M 1430.44898 1922.4 
L 1430.44898 689.302062 
L 1582.053161 689.302062 
L 1582.053161 723.791017 
" style="fill:none;stroke:#1f77b4;stroke-width:1.5;"/>
    <path clip-path="url(#pa0cdbb9644)" d="M 1384.897959 1922.4 
L 1384.897959 675.938934 
L 1506.25107 675.938934 
L 1506.25107 689.302062 
" style="fill:none;stroke:#1f77b4;stroke-width:1.5;"/>
    <path clip-path="url(#pa0cdbb9644)" d="M 1271.020408 746.114602 
L 1271.020408 667.484733 
L 1445.574515 667.484733 
L 1445.574515 675.938934 
" style="fill:none;stroke:#1f77b4;stroke-width:1.5;"/>
    <path clip-path="url(#pa0cdbb9644)" d="M 1157.142857 1922.4 
L 1157.142857 644.540187 
L 1358.297461 644.540187 
L 1358.297461 667.484733 
" style="fill:none;stroke:#1f77b4;stroke-width:1.5;"/>
    <path clip-path="url(#pa0cdbb9644)" d="M 1111.591837 1922.4 
L 1111.591837 619.498049 
L 1257.720159 619.498049 
L 1257.720159 644.540187 
" style="fill:none;stroke:#1f77b4;stroke-width:1.5;"/>
    <path clip-path="url(#pa0cdbb9644)" d="M 1066.040816 1922.4 
L 1066.040816 607.837036 
L 1184.655998 607.837036 
L 1184.655998 619.498049 
" style="fill:none;stroke:#1f77b4;stroke-width:1.5;"/>
    <path clip-path="url(#pa0cdbb9644)" d="M 1020.489796 1922.4 
L 1020.489796 581.671354 
L 1125.348407 581.671354 
L 1125.348407 607.837036 
" style="fill:none;stroke:#1f77b4;stroke-width:1.5;"/>
    <path clip-path="url(#pa0cdbb9644)" d="M 952.163265 646.6592 
L 952.163265 537.719508 
L 1072.919102 537.719508 
L 1072.919102 581.671354 
" style="fill:none;stroke:#1f77b4;stroke-width:1.5;"/>
    <path clip-path="url(#pa0cdbb9644)" d="M 883.836735 1922.4 
L 883.836735 530.459337 
L 1012.541183 530.459337 
L 1012.541183 537.719508 
" style="fill:none;stroke:#1f77b4;stroke-width:1.5;"/>
    <path clip-path="url(#pa0cdbb9644)" d="M 781.346939 721.379227 
L 781.346939 520.699743 
L 948.188959 520.699743 
L 948.188959 530.459337 
" style="fill:none;stroke:#1f77b4;stroke-width:1.5;"/>
    <path clip-path="url(#pa0cdbb9644)" d="M 678.857143 640.38987 
L 678.857143 504.851039 
L 864.767949 504.851039 
L 864.767949 520.699743 
" style="fill:none;stroke:#1f77b4;stroke-width:1.5;"/>
    <path clip-path="url(#pa0cdbb9644)" d="M 610.530612 1922.4 
L 610.530612 487.987523 
L 771.812546 487.987523 
L 771.812546 504.851039 
" style="fill:none;stroke:#1f77b4;stroke-width:1.5;"/>
    <path clip-path="url(#pa0cdbb9644)" d="M 564.979592 1922.4 
L 564.979592 482.083817 
L 691.171579 482.083817 
L 691.171579 487.987523 
" style="fill:none;stroke:#1f77b4;stroke-width:1.5;"/>
    <path clip-path="url(#pa0cdbb9644)" d="M 519.428571 1922.4 
L 519.428571 459.297543 
L 628.075585 459.297543 
L 628.075585 482.083817 
" style="fill:none;stroke:#1f77b4;stroke-width:1.5;"/>
    <path clip-path="url(#pa0cdbb9644)" d="M 473.877551 1922.4 
L 473.877551 371.909385 
L 573.752078 371.909385 
L 573.752078 459.297543 
" style="fill:none;stroke:#1f77b4;stroke-width:1.5;"/>
    <path clip-path="url(#pa0cdbb9644)" d="M 405.55102 438.472869 
L 405.55102 338.4 
L 523.814815 338.4 
L 523.814815 371.909385 
" style="fill:none;stroke:#1f77b4;stroke-width:1.5;"/>
   </g>
   <g id="patch_3">
    <path d="M 360 1922.4 
L 360 259.2 
" style="fill:none;stroke:#000000;stroke-linecap:square;stroke-linejoin:miter;stroke-width:0.8;"/>
   </g>
   <g id="patch_4">
    <path d="M 2592 1922.4 
L 2592 259.2 
" style="fill:none;stroke:#000000;stroke-linecap:square;stroke-linejoin:miter;stroke-width:0.8;"/>
   </g>
   <g id="patch_5">
    <path d="M 360 1922.4 
L 2592 1922.4 
" style="fill:none;stroke:#000000;stroke-linecap:square;stroke-linejoin:miter;stroke-width:0.8;"/>
   </g>
   <g id="patch_6">
    <path d="M 360 259.2 
L 2592 259.2 
" style="fill:none;stroke:#000000;stroke-linecap:square;stroke-linejoin:miter;stroke-width:0.8;"/>
   </g>
   <g id="text_58">
    <!-- Business Description Dendogram -->
    <g transform="translate(1376.165625 253.2)scale(0.12 -0.12)">
     <defs>
      <path d="M 544 1381 
L 544 3500 
L 1119 3500 
L 1119 1403 
Q 1119 906 1312 657 
Q 1506 409 1894 409 
Q 2359 409 2629 706 
Q 2900 1003 2900 1516 
L 2900 3500 
L 3475 3500 
L 3475 0 
L 2900 0 
L 2900 538 
Q 2691 219 2414 64 
Q 2138 -91 1772 -91 
Q 1169 -91 856 284 
Q 544 659 544 1381 
z
M 1991 3584 
L 1991 3584 
z
" id="DejaVuSans-75" transform="scale(0.015625)"/>
      <path d="M 3513 2113 
L 3513 0 
L 2938 0 
L 2938 2094 
Q 2938 2591 2744 2837 
Q 2550 3084 2163 3084 
Q 1697 3084 1428 2787 
Q 1159 2491 1159 1978 
L 1159 0 
L 581 0 
L 581 3500 
L 1159 3500 
L 1159 2956 
Q 1366 3272 1645 3428 
Q 1925 3584 2291 3584 
Q 2894 3584 3203 3211 
Q 3513 2838 3513 2113 
z
" id="DejaVuSans-6e" transform="scale(0.015625)"/>
      <path d="M 1159 525 
L 1159 -1331 
L 581 -1331 
L 581 3500 
L 1159 3500 
L 1159 2969 
Q 1341 3281 1617 3432 
Q 1894 3584 2278 3584 
Q 2916 3584 3314 3078 
Q 3713 2572 3713 1747 
Q 3713 922 3314 415 
Q 2916 -91 2278 -91 
Q 1894 -91 1617 61 
Q 1341 213 1159 525 
z
M 3116 1747 
Q 3116 2381 2855 2742 
Q 2594 3103 2138 3103 
Q 1681 3103 1420 2742 
Q 1159 2381 1159 1747 
Q 1159 1113 1420 752 
Q 1681 391 2138 391 
Q 2594 391 2855 752 
Q 3116 1113 3116 1747 
z
" id="DejaVuSans-70" transform="scale(0.015625)"/>
      <path d="M 1172 4494 
L 1172 3500 
L 2356 3500 
L 2356 3053 
L 1172 3053 
L 1172 1153 
Q 1172 725 1289 603 
Q 1406 481 1766 481 
L 2356 481 
L 2356 0 
L 1766 0 
Q 1100 0 847 248 
Q 594 497 594 1153 
L 594 3053 
L 172 3053 
L 172 3500 
L 594 3500 
L 594 4494 
L 1172 4494 
z
" id="DejaVuSans-74" transform="scale(0.015625)"/>
      <path d="M 2906 2969 
L 2906 4863 
L 3481 4863 
L 3481 0 
L 2906 0 
L 2906 525 
Q 2725 213 2448 61 
Q 2172 -91 1784 -91 
Q 1150 -91 751 415 
Q 353 922 353 1747 
Q 353 2572 751 3078 
Q 1150 3584 1784 3584 
Q 2172 3584 2448 3432 
Q 2725 3281 2906 2969 
z
M 947 1747 
Q 947 1113 1208 752 
Q 1469 391 1925 391 
Q 2381 391 2643 752 
Q 2906 1113 2906 1747 
Q 2906 2381 2643 2742 
Q 2381 3103 1925 3103 
Q 1469 3103 1208 2742 
Q 947 2381 947 1747 
z
" id="DejaVuSans-64" transform="scale(0.015625)"/>
      <path d="M 2906 1791 
Q 2906 2416 2648 2759 
Q 2391 3103 1925 3103 
Q 1463 3103 1205 2759 
Q 947 2416 947 1791 
Q 947 1169 1205 825 
Q 1463 481 1925 481 
Q 2391 481 2648 825 
Q 2906 1169 2906 1791 
z
M 3481 434 
Q 3481 -459 3084 -895 
Q 2688 -1331 1869 -1331 
Q 1566 -1331 1297 -1286 
Q 1028 -1241 775 -1147 
L 775 -588 
Q 1028 -725 1275 -790 
Q 1522 -856 1778 -856 
Q 2344 -856 2625 -561 
Q 2906 -266 2906 331 
L 2906 616 
Q 2728 306 2450 153 
Q 2172 0 1784 0 
Q 1141 0 747 490 
Q 353 981 353 1791 
Q 353 2603 747 3093 
Q 1141 3584 1784 3584 
Q 2172 3584 2450 3431 
Q 2728 3278 2906 2969 
L 2906 3500 
L 3481 3500 
L 3481 434 
z
" id="DejaVuSans-67" transform="scale(0.015625)"/>
      <path d="M 2194 1759 
Q 1497 1759 1228 1600 
Q 959 1441 959 1056 
Q 959 750 1161 570 
Q 1363 391 1709 391 
Q 2188 391 2477 730 
Q 2766 1069 2766 1631 
L 2766 1759 
L 2194 1759 
z
M 3341 1997 
L 3341 0 
L 2766 0 
L 2766 531 
Q 2569 213 2275 61 
Q 1981 -91 1556 -91 
Q 1019 -91 701 211 
Q 384 513 384 1019 
Q 384 1609 779 1909 
Q 1175 2209 1959 2209 
L 2766 2209 
L 2766 2266 
Q 2766 2663 2505 2880 
Q 2244 3097 1772 3097 
Q 1472 3097 1187 3025 
Q 903 2953 641 2809 
L 641 3341 
Q 956 3463 1253 3523 
Q 1550 3584 1831 3584 
Q 2591 3584 2966 3190 
Q 3341 2797 3341 1997 
z
" id="DejaVuSans-61" transform="scale(0.015625)"/>
     </defs>
     <use xlink:href="#DejaVuSans-42"/>
     <use x="68.603516" xlink:href="#DejaVuSans-75"/>
     <use x="131.982422" xlink:href="#DejaVuSans-73"/>
     <use x="184.082031" xlink:href="#DejaVuSans-69"/>
     <use x="211.865234" xlink:href="#DejaVuSans-6e"/>
     <use x="275.244141" xlink:href="#DejaVuSans-65"/>
     <use x="336.767578" xlink:href="#DejaVuSans-73"/>
     <use x="388.867188" xlink:href="#DejaVuSans-73"/>
     <use x="440.966797" xlink:href="#DejaVuSans-20"/>
     <use x="472.753906" xlink:href="#DejaVuSans-44"/>
     <use x="549.755859" xlink:href="#DejaVuSans-65"/>
     <use x="611.279297" xlink:href="#DejaVuSans-73"/>
     <use x="663.378906" xlink:href="#DejaVuSans-63"/>
     <use x="718.359375" xlink:href="#DejaVuSans-72"/>
     <use x="759.472656" xlink:href="#DejaVuSans-69"/>
     <use x="787.255859" xlink:href="#DejaVuSans-70"/>
     <use x="850.732422" xlink:href="#DejaVuSans-74"/>
     <use x="889.941406" xlink:href="#DejaVuSans-69"/>
     <use x="917.724609" xlink:href="#DejaVuSans-6f"/>
     <use x="978.90625" xlink:href="#DejaVuSans-6e"/>
     <use x="1042.285156" xlink:href="#DejaVuSans-20"/>
     <use x="1074.072266" xlink:href="#DejaVuSans-44"/>
     <use x="1151.074219" xlink:href="#DejaVuSans-65"/>
     <use x="1212.597656" xlink:href="#DejaVuSans-6e"/>
     <use x="1275.976562" xlink:href="#DejaVuSans-64"/>
     <use x="1339.453125" xlink:href="#DejaVuSans-6f"/>
     <use x="1400.634766" xlink:href="#DejaVuSans-67"/>
     <use x="1464.111328" xlink:href="#DejaVuSans-72"/>
     <use x="1505.224609" xlink:href="#DejaVuSans-61"/>
     <use x="1566.503906" xlink:href="#DejaVuSans-6d"/>
    </g>
   </g>
  </g>
 </g>
 <defs>
  <clipPath id="pa0cdbb9644">
   <rect height="1663.2" width="2232" x="360" y="259.2"/>
  </clipPath>
 </defs>
</svg>
